<svg width="24" height="24" viewBox="0 0 24 24" fill="none" xmlns="http://www.w3.org/2000/svg">
<g clip-path="url(#clip0_239_334)">
<path d="M12.0038 7.95708C9.73238 7.95708 7.90023 9.76059 7.90023 11.9965C7.90023 14.2325 9.73238 16.036 12.0038 16.036C14.2752 16.036 16.1074 14.2325 16.1074 11.9965C16.1074 9.76059 14.2752 7.95708 12.0038 7.95708ZM12.0038 14.6227C10.5359 14.6227 9.33595 13.445 9.33595 11.9965C9.33595 10.5481 10.5324 9.37036 12.0038 9.37036C13.4752 9.37036 14.6717 10.5481 14.6717 11.9965C14.6717 13.445 13.4717 14.6227 12.0038 14.6227ZM17.2324 7.79184C17.2324 8.31567 16.8038 8.73403 16.2752 8.73403C15.7431 8.73403 15.3181 8.31216 15.3181 7.79184C15.3181 7.27153 15.7467 6.84966 16.2752 6.84966C16.8038 6.84966 17.2324 7.27153 17.2324 7.79184ZM19.9502 8.74809C19.8895 7.48598 19.5967 6.36802 18.6574 5.44692C17.7217 4.52583 16.5859 4.23755 15.3038 4.17427C13.9824 4.10044 10.0217 4.10044 8.70023 4.17427C7.42166 4.23403 6.28595 4.52231 5.34666 5.44341C4.40738 6.3645 4.11809 7.48247 4.05381 8.74458C3.97881 10.0454 3.97881 13.9442 4.05381 15.245C4.11452 16.5071 4.40738 17.625 5.34666 18.5461C6.28595 19.4672 7.41809 19.7555 8.70023 19.8188C10.0217 19.8926 13.9824 19.8926 15.3038 19.8188C16.5859 19.759 17.7217 19.4707 18.6574 18.5461C19.5931 17.625 19.8859 16.5071 19.9502 15.245C20.0252 13.9442 20.0252 10.0489 19.9502 8.74809ZM18.2431 16.6407C17.9645 17.3297 17.4252 17.8606 16.7217 18.1383C15.6681 18.5497 13.1681 18.4547 12.0038 18.4547C10.8395 18.4547 8.33595 18.5461 7.28595 18.1383C6.58595 17.8641 6.04666 17.3332 5.76452 16.6407C5.34666 15.6036 5.44309 13.1426 5.44309 11.9965C5.44309 10.8504 5.35024 8.38598 5.76452 7.35239C6.04309 6.66333 6.58238 6.13247 7.28595 5.85474C8.33952 5.44341 10.8395 5.53833 12.0038 5.53833C13.1681 5.53833 15.6717 5.44692 16.7217 5.85474C17.4217 6.12895 17.9609 6.65981 18.2431 7.35239C18.6609 8.3895 18.5645 10.8504 18.5645 11.9965C18.5645 13.1426 18.6609 15.6071 18.2431 16.6407Z" fill="white"/>
</g>
<defs>
<clipPath id="clip0_239_334">
<rect width="16" height="18" fill="white" transform="translate(4 3)"/>
</clipPath>
</defs>
</svg>
